{"title":"Formula.1.2016x14.Italy.Teds.Qualifying.Notebook.SkyF1HD.1080p50","uid":15748677,"size":1362329958,"categoryP":"video","categoryS":"other","magnet":"?xt=urn:btih:42e4911464d6ef664605061ff3e5417d531384cb&amp;dn=Formula.1.2016x14.Italy.Teds.Qualifying.Notebook.SkyF1HD.1080p50&amp;tr=udp%3A%2F%2Ftracker.leechers-paradise.org%3A6969&amp;tr=udp%3A%2F%2Fzer0day.ch%3A1337&amp;tr=udp%3A%2F%2Fopen.demonii.com%3A1337&amp;tr=udp%3A%2F%2Ftracker.coppersurfer.tk%3A6969&amp;tr=udp%3A%2F%2Fexodus.desync.com%3A6969","seeders":7,"leechers":0,"uploader":"GaYoonFan","files":1,"time":1473002467,"description":"Formula.1.2016x14.Italy.Teds.Qualifying.Notebook.SkyF1HD.1080p50-smcgill1969:\r\n\r\nTed Kravitz analyses all of the key talking points from qualifying at the 2016 Italian Grand Prix at Autodromo Nazionale Monza.\r\n\r\n Video\r\n ID : 1\r\n Format : AVC\r\n Format/Info : Advanced Video Codec\r\n Format profile :   \r\n Format settings, CABAC : Yes\r\n Format settings, ReFrames : 2 frames\r\n Format settings, GOP : M=3, N=24\r\n Codec ID : avc1\r\n Codec ID/Info : Advanced Video Coding\r\n Duration : 29mn 6s\r\n Duration_FirstFrame : 19ms\r\n Bit rate mode : Variable\r\n Bit rate : 5 979 Kbps\r\n Maximum bit rate : 12.4 Mbps\r\n Width : 1 920 pixels\r\n Height : 1 080 pixels\r\n Original height : 1 088 pixels\r\n Display aspect ratio : 16:9\r\n Original display aspect ratio : 16:9\r\n Frame rate mode : Constant\r\n Frame rate : 50.000 fps\r\n Color space : YUV\r\n Chroma subsampling : 4:2:0\r\n Bit depth : 8 bits\r\n Scan type : Progressive\r\n Bits/(Pixel*Frame) : 0.058\r\n Stream size : 1.22 GiB (96%)\r\n Language : English\r\n Encoded date : UTC 2016-09-03 18:49:35\r\n Tagged date : UTC 2016-09-03 19:20:07\r\n\r\n Audio\r\n ID : 2\r\n Format : AAC\r\n Format/Info : Advanced Audio Codec\r\n Format profile : LC\r\n Codec ID : 40\r\n Duration : 29mn 6s\r\n Bit rate mode : Constant\r\n Bit rate : 256 Kbps\r\n Channel(s) : 2 channels\r\n Channel positions : Front: L R\r\n Sampling rate : 48.0 KHz\r\n Frame rate : 46.875 fps (1024 spf)\r\n Compression mode : Lossy\r\n Stream size : 52.7 MiB (4%)\r\n Language : English\r\n Encoded date : UTC 2016-09-03 18:49:35\r\n Tagged date : UTC 2016-09-03 19:20:07","torrent":{"xt":"urn:btih:42e4911464d6ef664605061ff3e5417d531384cb","amp;dn":"Formula.1.2016x14.Italy.Teds.Qualifying.Notebook.SkyF1HD.1080p50","amp;tr":["udp%3A%2F%2Ftracker.leechers-paradise.org%3A6969","udp%3A%2F%2Fzer0day.ch%3A1337","udp%3A%2F%2Fopen.demonii.com%3A1337","udp%3A%2F%2Ftracker.coppersurfer.tk%3A6969","udp%3A%2F%2Fexodus.desync.com%3A6969"],"infoHash":"42e4911464d6ef664605061ff3e5417d531384cb","infoHashBuffer":{"type":"Buffer","data":[66,228,145,20,100,214,239,102,70,5,6,31,243,229,65,125,83,19,132,203]},"announce":[],"urlList":[]}}